<?xml version="1.0" encoding="UTF-8"?>
<!DOCTYPE svg PUBLIC "-//W3C//DTD SVG 1.1//EN" "http://www.w3.org/Graphics/SVG/1.1/DTD/svg11.dtd">
<!-- Creator: CorelDRAW 2018 (64 Bit Versão de avaliação) -->
<svg xmlns="http://www.w3.org/2000/svg" xml:space="preserve" width="40px" height="40px" version="1.1" style="shape-rendering:geometricPrecision; text-rendering:geometricPrecision; image-rendering:optimizeQuality; fill-rule:evenodd; clip-rule:evenodd"
viewBox="0 0 40 40"
 xmlns:xlink="http://www.w3.org/1999/xlink">
 <defs>
  <style type="text/css">
   <![CDATA[
    .fil0 {fill:#404951}
   ]]>
  </style>
 </defs>
 <g id="Camada_x0020_1">
  <metadata id="CorelCorpID_0Corel-Layer"/>
  <path class="fil0" d="M20.69 16.34l0 11.51 5.01 -5.39 0.01 -0.01 0.01 -0.01 0.06 -0.07 0.01 0c0.2,-0.14 0.51,-0.16 0.74,-0.03 0.24,0.13 0.32,0.36 0.21,0.55l0.01 0 -0.06 0.06 -0.01 0.01 -0.01 0.01 0 0.01 -0.01 0.01 -5.92 6.37 0 0 -0.02 0.03c-0.15,0.16 -0.41,0.23 -0.65,0.18 -0.22,0.03 -0.46,-0.03 -0.6,-0.18l-0.03 -0.03 0 0 -5.89 -6.38 -0.01 0 -0.01 -0.01 -0.01 -0.01 -0.01 -0.01 -0.05 -0.06 0.01 -0.01c-0.11,-0.19 -0.03,-0.42 0.2,-0.55 0.23,-0.12 0.54,-0.1 0.74,0.04l0.01 -0.01 0.07 0.07 0 0.01 0.01 0.01 5 5.4 0 -11.53 0 0c0.01,-0.25 0.27,-0.46 0.6,-0.46 0.33,0 0.59,0.21 0.59,0.46l0 0.02zm10.49 -2.91l0 3.95c0,1.41 -0.97,2.64 -2.33,2.98l-4.24 0 0 -1.3 3.5 0c0.93,0 1.69,-0.75 1.69,-1.68l0 -3.95c0,-0.92 -0.76,-1.68 -1.69,-1.68l-16.29 0c-0.92,0 -1.68,0.76 -1.68,1.68l0 3.95c0,0.93 0.76,1.68 1.68,1.68l3.76 0 0 1.3 -4.49 0c-1.14,-0.28 -2.03,-1.21 -2.27,-2.36l0 -5.19c0.25,-1.21 1.23,-2.17 2.45,-2.39l17.39 0c1.45,0.26 2.52,1.53 2.52,3.01z"/>
 </g>
</svg>
