<?xml version="1.0" encoding="UTF-8"?>
<!DOCTYPE svg PUBLIC "-//W3C//DTD SVG 1.1//EN" "http://www.w3.org/Graphics/SVG/1.1/DTD/svg11.dtd">
<!-- Creator: CorelDRAW 2018 (64 Bit Versão de avaliação) -->
<svg xmlns="http://www.w3.org/2000/svg" xml:space="preserve" width="40px" height="40px" version="1.1" style="shape-rendering:geometricPrecision; text-rendering:geometricPrecision; image-rendering:optimizeQuality; fill-rule:evenodd; clip-rule:evenodd"
viewBox="0 0 40 40"
 xmlns:xlink="http://www.w3.org/1999/xlink">
 <defs>
  <style type="text/css">
   <![CDATA[
    .fil0 {fill:#404951}
   ]]>
  </style>
 </defs>
 <g id="Camada_x0020_1">
  <metadata id="CorelCorpID_0Corel-Layer"/>
  <path class="fil0" d="M19.31 30.25l0 -11.51 -5 5.38 -0.01 0.01 -0.01 0.01 -0.01 0.01 0 0.01 -0.06 0.06 -0.01 -0.01c-0.2,0.14 -0.51,0.16 -0.75,0.04 -0.23,-0.13 -0.31,-0.36 -0.2,-0.55l-0.01 -0.01 0.06 -0.06 0.01 -0.02 0.02 -0.02 5.92 -6.37 0 0 0.02 -0.03c0.15,-0.16 0.41,-0.22 0.65,-0.17 0.22,-0.04 0.46,0.03 0.6,0.18l0.03 0.03 0 0 5.89 6.37 0.01 0.01 0.01 0.01 0.01 0.01 0.01 0.01 0.05 0.06 -0.01 0.01c0.11,0.19 0.03,0.42 -0.2,0.55 -0.23,0.12 -0.54,0.1 -0.74,-0.04l-0.01 0.01 -0.07 -0.07 -0.01 -0.01 0 -0.01 -5 -5.4 0 11.53 -0.01 0c0,0.25 -0.26,0.45 -0.59,0.45 -0.33,0 -0.59,-0.2 -0.59,-0.45l0 -0.02zm-10.49 -17.97l0 3.94c0,1.4 0.97,2.62 2.33,2.96l4.24 0 0 -1.29 -3.5 0c-0.93,0 -1.69,-0.75 -1.69,-1.67l0 -3.94c0,-0.92 0.76,-1.67 1.69,-1.67l16.29 0c0.92,0 1.68,0.75 1.68,1.67l0 3.94c0,0.92 -0.76,1.67 -1.68,1.67l-3.76 0 0 1.29 4.49 0c1.14,-0.28 2.03,-1.2 2.27,-2.35l0 -5.16c-0.25,-1.22 -1.23,-2.17 -2.45,-2.39l-17.39 0c-1.45,0.26 -2.52,1.53 -2.52,3z"/>
 </g>
</svg>
