<?xml version="1.0" encoding="UTF-8"?>
<!DOCTYPE svg PUBLIC "-//W3C//DTD SVG 1.1//EN" "http://www.w3.org/Graphics/SVG/1.1/DTD/svg11.dtd">
<!-- Creator: CorelDRAW 2018 (64 Bit Versão de avaliação) -->
<svg xmlns="http://www.w3.org/2000/svg" xml:space="preserve" width="40px" height="40px" version="1.1" style="shape-rendering:geometricPrecision; text-rendering:geometricPrecision; image-rendering:optimizeQuality; fill-rule:evenodd; clip-rule:evenodd"
viewBox="0 0 40 40"
 xmlns:xlink="http://www.w3.org/1999/xlink">
 <defs>
  <style type="text/css">
   <![CDATA[
    .fil0 {fill:#737678}
   ]]>
  </style>
 </defs>
 <g id="Camada_x0020_1">
  <metadata id="CorelCorpID_0Corel-Layer"/>
  <path class="fil0" d="M28.62 14.06l-5.92 0 0.01 -5.92c-2.92,0 -5.85,0 -8.77,0l-0.9 0c-0.59,0.03 -1.14,0.19 -1.48,0.86 -0.18,0.36 -0.17,0.45 -0.17,0.95 0.01,1.76 -0.07,20.34 0.05,20.75 0.03,0.13 0.1,0.27 0.17,0.39l0.23 0.28c0.45,0.45 0.72,0.49 1.44,0.49l0.25 0 0.04 0 13.11 0 0.02 0 0.45 0c0.17,-0.01 0.3,-0.04 0.51,-0.13 0.24,-0.1 0.31,-0.17 0.49,-0.34l0.05 -0.05c0.01,0 0.02,-0.01 0.02,-0.02 0.5,-0.53 0.4,-1 0.4,-1.92l0 -15.34zm-4.59 9.55l0 -1.72 -3.34 0 0.01 1.72 3.33 0zm-8.06 0l3.34 0 -0.01 -1.72 -3.33 0 0 1.72zm8.06 -3.09l0 -1.73 -3.34 0 0.01 1.73 3.33 0zm-8.04 0l3.35 0 -0.01 -1.73 -3.34 0 0 1.73zm11.85 -7.25l-4.37 -4.37 0.02 4.48 4.35 -0.11zm-2.47 4.18l-10.73 0c-0.07,0.12 -0.04,0.26 -0.04,0.42 0,1.15 -0.04,6.69 0.01,7.11 0.23,0.09 10.56,0.09 10.79,0 0.02,-0.11 0.07,-7.13 0.01,-7.43 -0.01,-0.09 -0.01,-0.06 -0.04,-0.1z"/>
 </g>
</svg>
